{"glyphs":{"0":{"ha":1012,"x_min":40,"x_max":972,"o":"m 506 -16 l 506 -16 q 162 109 283 -16 q 40 469 40 234 l 40 469 l 40 1263 q 156 1644 40 1511 q 506 1776 271 1776 l 506 1776 q 857 1644 742 1776 q 972 1263 972 1511 l 972 1263 l 972 469 q 851 109 972 234 q 506 -16 730 -16 m 506 308 l 506 308 q 570 345 547 308 q 593 428 593 382 l 593 428 l 593 1297 q 580 1406 593 1359 q 506 1452 566 1452 l 506 1452 q 433 1406 446 1452 q 419 1297 419 1359 l 419 1297 l 419 428 q 443 345 419 382 q 506 308 466 308"},"1":{"ha":677,"x_min":25,"x_max":616,"o":"m 616 0 l 243 0 l 243 1356 q 144 1287 207 1313 q 25 1260 81 1260 l 25 1260 l 25 1541 q 139 1576 78 1549 q 253 1649 200 1602 q 333 1761 305 1695 l 333 1761 l 616 1761 l 616 0"},"2":{"ha":1012,"x_min":58,"x_max":987,"o":"m 975 0 l 62 0 l 62 84 q 103 320 62 215 q 207 514 143 424 q 342 689 271 603 l 342 689 q 474 862 411 773 q 576 1054 536 950 q 615 1286 615 1157 l 615 1286 q 597 1393 615 1348 q 520 1437 578 1437 l 520 1437 q 432 1280 432 1437 l 432 1280 l 432 1065 l 62 1065 q 60 1117 61 1088 q 58 1173 58 1146 l 58 1173 q 98 1496 58 1363 q 240 1698 138 1628 q 525 1767 341 1767 l 525 1767 q 866 1644 744 1767 q 987 1293 987 1521 l 987 1293 q 947 1022 987 1138 q 841 810 907 905 q 696 619 775 714 l 696 619 q 588 482 640 552 q 495 332 535 412 l 495 332 l 975 332 l 975 0"},"3":{"ha":1012,"x_min":39,"x_max":961,"o":"m 484 -20 l 484 -20 q 145 103 251 -20 q 39 474 39 226 l 39 474 l 39 658 l 400 658 l 400 473 q 418 355 400 403 q 496 306 435 306 l 496 306 q 575 359 558 306 q 592 530 592 411 l 592 530 l 592 574 q 562 733 592 665 q 442 801 531 801 l 442 801 q 423 801 431 801 q 408 799 414 800 l 408 799 l 408 1115 q 547 1156 499 1115 q 595 1291 595 1196 l 595 1291 q 509 1440 595 1440 l 509 1440 q 434 1397 453 1440 q 414 1286 414 1353 l 414 1286 l 414 1233 l 50 1233 q 49 1262 49 1245 q 48 1295 48 1279 l 48 1295 q 161 1650 48 1537 q 507 1763 274 1763 l 507 1763 q 957 1295 957 1763 l 957 1295 q 922 1081 957 1165 q 792 962 887 996 l 792 962 q 903 870 867 926 q 950 731 939 814 q 961 530 961 648 l 961 530 q 851 123 961 266 q 484 -20 740 -20"},"4":{"ha":1012,"x_min":18,"x_max":993,"o":"m 899 -1 l 540 -1 l 540 278 l 18 278 l 18 553 l 351 1761 l 899 1761 l 899 572 l 993 572 l 993 278 l 899 278 l 899 -1 m 540 1459 l 332 572 l 540 572 l 540 1459"},"5":{"ha":1012,"x_min":46,"x_max":977,"o":"m 506 -25 l 506 -25 q 175 76 303 -25 q 46 384 46 176 l 46 384 l 46 646 l 412 646 l 412 495 q 418 404 412 448 q 443 332 423 360 q 506 304 463 304 l 506 304 q 581 343 563 304 q 599 441 599 381 l 599 441 l 599 787 q 594 872 599 830 q 569 942 588 914 q 508 970 550 970 l 508 970 q 408 825 408 970 l 408 825 l 85 825 l 85 1761 l 924 1761 l 924 1431 l 419 1431 l 419 1183 q 490 1240 445 1215 q 594 1264 534 1264 l 594 1264 q 790 1218 714 1264 q 906 1090 865 1172 q 962 900 946 1008 q 977 668 977 792 l 977 668 q 961 382 977 509 q 896 163 944 254 q 754 24 847 72 q 506 -25 660 -25"},"6":{"ha":1012,"x_min":54,"x_max":988,"o":"m 529 -16 l 529 -16 q 243 47 346 -16 q 97 235 139 109 q 54 549 54 361 l 54 549 l 54 1025 q 70 1348 54 1208 q 134 1583 85 1488 q 280 1727 183 1678 q 539 1776 377 1776 l 539 1776 q 746 1738 650 1776 q 901 1623 842 1699 q 960 1431 960 1546 l 960 1431 l 960 1241 l 621 1241 l 621 1277 q 617 1365 621 1321 q 594 1438 612 1409 q 533 1467 576 1467 l 533 1467 q 451 1435 474 1467 q 428 1341 428 1402 l 428 1341 l 428 988 q 503 1064 453 1035 q 625 1092 553 1092 l 625 1092 q 850 1034 771 1092 q 958 859 928 975 q 988 569 988 743 l 988 569 q 945 262 988 393 q 802 57 902 130 q 529 -16 701 -16 m 516 308 l 516 308 q 590 361 578 308 q 602 495 602 413 l 602 495 l 602 637 q 521 781 602 781 l 521 781 q 428 656 428 781 l 428 656 l 428 438 q 516 308 428 308"},"7":{"ha":1012,"x_min":70,"x_max":958,"o":"m 543 1 l 145 1 q 214 461 161 247 q 336 860 267 675 q 469 1198 405 1044 l 469 1198 l 567 1435 l 70 1435 l 70 1761 l 958 1761 l 958 1569 q 923 1355 958 1463 q 831 1117 888 1247 l 831 1117 q 634 556 707 835 q 543 1 560 276 l 543 1"},"8":{"ha":1012,"x_min":46,"x_max":966,"o":"m 506 -19 l 506 -19 q 152 123 258 -19 q 46 525 46 265 l 46 525 l 46 642 q 78 859 46 776 q 196 986 110 942 l 196 986 q 81 1097 115 1019 q 47 1289 47 1174 l 47 1289 l 47 1335 q 165 1676 47 1569 q 506 1782 282 1782 l 506 1782 q 850 1673 736 1782 q 964 1321 964 1563 l 964 1321 q 934 1108 964 1194 q 815 984 904 1022 l 815 984 q 938 856 910 935 q 966 642 966 776 l 966 642 l 966 525 q 860 123 966 265 q 506 -19 754 -19 m 506 1134 l 506 1134 q 599 1302 599 1134 l 599 1302 q 580 1408 599 1358 q 506 1458 560 1458 l 506 1458 q 433 1408 452 1458 q 413 1302 413 1358 l 413 1302 q 506 1134 413 1134 m 506 329 l 506 329 q 602 484 602 329 l 602 484 l 602 645 q 581 770 602 725 q 506 815 559 815 l 506 815 q 431 770 451 815 q 411 645 411 725 l 411 645 l 411 484 q 506 329 411 329"},"9":{"ha":1012,"x_min":54,"x_max":988,"o":"m 503 -16 l 503 -16 q 296 23 392 -16 q 141 138 200 61 q 82 329 82 215 l 82 329 l 82 519 l 421 519 l 421 483 q 426 395 421 439 q 449 322 430 351 q 509 293 467 293 l 509 293 q 591 326 568 293 q 614 419 614 358 l 614 419 l 614 772 q 539 697 589 726 q 417 668 489 668 l 417 668 q 193 727 272 668 q 84 901 114 785 q 54 1191 54 1017 l 54 1191 q 97 1499 54 1367 q 241 1703 140 1630 q 513 1776 341 1776 l 513 1776 q 800 1714 697 1776 q 946 1526 903 1651 q 988 1211 988 1400 l 988 1211 l 988 735 q 973 412 988 552 q 908 177 957 272 q 762 33 859 82 q 503 -16 665 -16 m 521 979 l 521 979 q 614 1104 614 979 l 614 1104 l 614 1322 q 526 1452 614 1452 l 526 1452 q 452 1400 464 1452 q 440 1265 440 1347 l 440 1265 l 440 1123 q 521 979 440 979"}," ":{"ha":480,"x_min":0,"x_max":0,"o":""},"A":{"ha":994,"x_min":30,"x_max":964,"o":"m 372 0 l 30 0 l 200 1760 l 797 1760 l 964 0 l 631 0 l 606 284 l 394 284 l 372 0 m 486 1460 l 419 565 l 579 565 l 502 1460 l 486 1460"},"B":{"ha":980,"x_min":78,"x_max":942,"o":"m 555 0 l 78 0 l 78 1760 l 555 1760 q 835 1667 747 1760 q 922 1358 922 1573 l 922 1358 l 922 1281 q 878 1080 922 1157 q 742 979 833 1003 l 742 979 q 902 839 861 949 q 942 569 942 728 l 942 569 q 910 270 942 398 q 794 71 878 142 q 555 0 710 0 l 555 0 m 422 1488 l 422 1097 l 494 1097 q 557 1135 543 1097 q 571 1226 571 1173 l 571 1226 l 571 1403 q 496 1488 571 1488 l 496 1488 l 422 1488 m 457 310 l 457 310 q 594 440 594 310 l 594 440 l 594 660 q 572 779 594 735 q 487 822 549 822 l 487 822 l 422 822 l 422 312 q 457 310 444 310"},"C":{"ha":971,"x_min":64,"x_max":932,"o":"m 488 -16 l 488 -16 q 181 103 297 -16 q 64 436 64 222 l 64 436 l 64 1248 q 166 1640 64 1504 q 496 1776 267 1776 l 496 1776 q 719 1730 621 1776 q 872 1593 816 1684 q 928 1362 928 1501 l 928 1362 l 928 1058 l 578 1058 l 578 1318 q 558 1425 578 1397 q 496 1452 538 1452 l 496 1452 q 430 1417 447 1452 q 413 1322 413 1381 l 413 1322 l 413 441 q 435 338 413 368 q 496 308 456 308 l 496 308 q 560 345 541 308 q 578 441 578 382 l 578 441 l 578 758 l 932 758 l 932 425 q 815 89 932 193 q 488 -16 698 -16"},"D":{"ha":1010,"x_min":78,"x_max":944,"o":"m 550 0 l 78 0 l 78 1760 l 562 1760 q 848 1655 752 1760 q 944 1346 944 1549 l 944 1346 l 944 522 q 857 136 944 272 q 550 0 769 0 l 550 0 m 432 1452 l 432 311 l 493 311 q 590 405 590 311 l 590 405 l 590 1313 q 567 1427 590 1401 q 471 1452 543 1452 l 471 1452 l 432 1452"},"E":{"ha":843,"x_min":78,"x_max":805,"o":"m 805 0 l 78 0 l 78 1760 l 782 1760 l 782 1420 l 436 1420 l 436 1077 l 768 1077 l 768 746 l 436 746 l 436 343 l 805 343 l 805 0"},"F":{"ha":817,"x_min":78,"x_max":782,"o":"m 432 0 l 78 0 l 78 1760 l 782 1760 l 782 1417 l 432 1417 l 432 1137 l 764 1137 l 764 798 l 432 798 l 432 0"},"G":{"ha":993,"x_min":64,"x_max":936,"o":"m 441 -16 l 441 -16 q 64 524 64 -16 l 64 524 l 64 1283 q 496 1776 64 1776 l 496 1776 q 769 1705 674 1776 q 900 1496 864 1633 q 936 1162 936 1359 l 936 1162 l 592 1162 l 592 1318 q 577 1414 592 1375 q 512 1452 561 1452 l 512 1452 q 432 1411 451 1452 q 412 1321 412 1370 l 412 1321 l 412 468 q 431 353 412 397 q 503 308 449 308 l 503 308 q 578 353 559 308 q 596 470 596 397 l 596 470 l 596 721 l 502 721 l 502 1025 l 932 1025 l 932 0 l 791 0 l 731 148 q 441 -16 639 -16"},"H":{"ha":1022,"x_min":78,"x_max":944,"o":"m 428 0 l 78 0 l 78 1760 l 428 1760 l 428 1131 l 594 1131 l 594 1760 l 944 1760 l 944 0 l 594 0 l 594 798 l 428 798 l 428 0"},"I":{"ha":464,"x_min":62,"x_max":402,"o":"m 402 0 l 62 0 l 62 1760 l 402 1760 l 402 0"},"J":{"ha":955,"x_min":38,"x_max":898,"o":"m 468 -16 l 468 -16 q 251 30 349 -16 q 96 167 153 76 q 38 389 38 257 l 38 389 l 38 830 l 386 830 l 386 410 q 405 336 386 364 q 464 308 423 308 l 464 308 q 543 405 543 308 l 543 405 l 543 1760 l 898 1760 l 898 440 q 843 198 898 300 q 691 40 788 95 q 468 -16 594 -16"},"K":{"ha":967,"x_min":78,"x_max":985,"o":"m 428 0 l 78 0 l 78 1760 l 426 1760 l 426 1055 l 590 1760 l 944 1760 l 747 954 l 985 0 l 620 0 l 428 852 l 428 0"},"L":{"ha":814,"x_min":78,"x_max":792,"o":"m 792 0 l 78 0 l 78 1760 l 430 1760 l 430 300 l 792 300 l 792 0"},"M":{"ha":1528,"x_min":78,"x_max":1450,"o":"m 396 0 l 78 0 l 78 1760 l 614 1760 l 762 687 l 909 1760 l 1450 1760 l 1450 0 l 1128 0 l 1128 1268 l 926 0 l 610 0 l 396 1268 l 396 0"},"N":{"ha":1020,"x_min":78,"x_max":942,"o":"m 422 0 l 78 0 l 78 1760 l 440 1760 l 602 917 l 602 1760 l 942 1760 l 942 0 l 598 0 l 422 880 l 422 0"},"O":{"ha":996,"x_min":64,"x_max":932,"o":"m 498 -16 l 498 -16 q 176 112 287 -16 q 64 480 64 239 l 64 480 l 64 1316 q 175 1659 64 1542 q 498 1776 285 1776 l 498 1776 q 822 1659 711 1776 q 932 1316 932 1542 l 932 1316 l 932 480 q 821 112 932 239 q 498 -16 709 -16 m 501 308 l 501 308 q 581 463 581 308 l 581 463 l 581 1322 q 503 1452 581 1452 l 503 1452 q 415 1319 415 1452 l 415 1319 l 415 461 q 435 344 415 379 q 501 308 455 308"},"P":{"ha":967,"x_min":78,"x_max":934,"o":"m 424 0 l 78 0 l 78 1760 l 543 1760 q 775 1695 689 1760 q 897 1510 860 1630 q 934 1224 934 1390 l 934 1224 q 903 946 934 1064 q 793 762 872 827 q 567 697 713 697 l 567 697 l 424 697 l 424 0 m 424 1439 l 424 1013 l 444 1013 q 564 1068 542 1013 q 586 1230 586 1123 l 586 1230 q 565 1385 586 1330 q 463 1439 543 1439 l 463 1439 l 424 1439"},"Q":{"ha":1011,"x_min":54,"x_max":975,"o":"m 975 23 l 856 -187 l 576 -3 q 477 -16 528 -16 l 477 -16 q 163 106 271 -16 q 54 462 54 228 l 54 462 l 54 1313 q 166 1658 54 1540 q 488 1776 277 1776 l 488 1776 q 811 1658 699 1776 q 922 1313 922 1540 l 922 1313 l 922 462 q 824 119 922 244 l 824 119 l 975 23 m 488 308 l 488 308 q 543 336 526 308 q 564 405 559 364 q 568 484 568 446 l 568 484 l 568 1307 q 553 1408 568 1363 q 486 1452 537 1452 l 486 1452 q 418 1409 434 1452 q 402 1308 402 1365 l 402 1308 l 402 477 q 407 403 402 442 q 429 336 411 363 q 488 308 447 308"},"R":{"ha":976,"x_min":78,"x_max":938,"o":"m 434 0 l 78 0 l 78 1760 l 618 1760 q 822 1699 753 1760 q 915 1527 891 1637 q 938 1267 938 1416 l 938 1267 q 902 1037 938 1123 q 764 918 865 951 l 764 918 q 881 836 847 901 q 914 666 914 770 l 914 666 l 914 0 l 567 0 l 567 689 q 536 785 567 766 q 434 803 504 803 l 434 803 l 434 0 m 436 1434 l 436 1108 l 521 1108 q 594 1267 594 1108 l 594 1267 q 578 1402 594 1370 q 518 1434 562 1434 l 518 1434 l 436 1434"},"S":{"ha":945,"x_min":42,"x_max":906,"o":"m 496 -16 l 496 -16 q 149 104 255 -16 q 42 486 42 224 l 42 486 l 42 658 l 390 658 l 390 438 q 409 343 390 377 q 473 308 427 308 l 473 308 q 540 336 521 308 q 558 428 558 364 l 558 428 q 542 564 558 509 q 487 668 526 618 q 377 783 447 717 l 377 783 l 219 933 q 42 1315 42 1100 l 42 1315 q 147 1658 42 1540 q 449 1776 251 1776 l 449 1776 q 793 1647 691 1776 q 894 1255 894 1518 l 894 1255 l 536 1255 l 536 1376 q 516 1432 536 1412 q 460 1452 495 1452 l 460 1452 q 399 1429 418 1452 q 379 1368 379 1405 l 379 1368 q 399 1288 379 1331 q 478 1189 419 1245 l 478 1189 l 681 994 q 793 872 742 936 q 875 722 844 807 q 906 513 906 636 l 906 513 q 815 125 906 265 q 496 -16 723 -16"},"T":{"ha":810,"x_min":20,"x_max":790,"o":"m 581 0 l 229 0 l 229 1422 l 20 1422 l 20 1760 l 790 1760 l 790 1422 l 581 1422 l 581 0"},"U":{"ha":970,"x_min":57,"x_max":913,"o":"m 485 -16 l 485 -16 q 161 108 265 -16 q 57 471 57 231 l 57 471 l 57 1760 l 399 1760 l 399 485 q 404 401 399 441 q 427 334 409 360 q 485 308 445 308 l 485 308 q 544 334 526 308 q 567 400 562 359 q 571 485 571 441 l 571 485 l 571 1760 l 913 1760 l 913 471 q 809 108 913 231 q 485 -16 705 -16"},"V":{"ha":961,"x_min":23,"x_max":937,"o":"m 720 0 l 240 0 l 23 1761 l 358 1761 l 487 563 l 602 1761 l 937 1761 l 720 0"},"W":{"ha":1458,"x_min":27,"x_max":1431,"o":"m 645 0 l 216 0 l 27 1760 l 371 1760 l 468 649 l 567 1760 l 895 1760 l 989 649 l 1083 1760 l 1431 1760 l 1239 0 l 817 0 l 729 847 l 645 0"},"X":{"ha":991,"x_min":27,"x_max":965,"o":"m 384 0 l 27 0 l 216 933 l 66 1761 l 410 1761 l 501 1156 l 582 1761 l 927 1761 l 777 933 l 965 0 l 609 0 l 498 688 l 384 0"},"Y":{"ha":914,"x_min":10,"x_max":903,"o":"m 623 0 l 291 0 l 291 579 l 10 1760 l 359 1760 l 457 1164 l 555 1760 l 903 1760 l 623 579 l 623 0"},"Z":{"ha":840,"x_min":32,"x_max":806,"o":"m 789 0 l 32 0 l 32 320 l 435 1436 l 71 1436 l 71 1760 l 806 1760 l 806 1452 l 396 324 l 789 324 l 789 0"},"a":{"ha":990,"x_min":41,"x_max":924,"o":"m 345 -16 l 345 -16 q 155 42 220 -16 q 65 201 89 100 q 41 430 41 302 l 41 430 q 68 655 41 567 q 161 798 95 742 q 341 893 226 854 l 341 893 l 563 969 l 563 1123 q 484 1244 563 1244 l 484 1244 q 412 1146 412 1244 l 412 1146 l 412 1056 l 64 1056 q 63 1077 63 1064 q 63 1105 63 1089 l 63 1105 q 169 1423 63 1329 q 503 1516 274 1516 l 503 1516 q 718 1474 623 1516 q 869 1348 813 1431 q 924 1143 924 1265 l 924 1143 l 924 0 l 568 0 l 568 178 q 482 34 542 84 q 345 -16 422 -16 m 486 262 l 486 262 q 546 299 530 262 q 562 379 562 336 l 562 379 l 562 797 q 447 722 488 767 q 406 588 406 676 l 406 588 l 406 395 q 486 262 406 262"},"b":{"ha":1027,"x_min":76,"x_max":967,"o":"m 671 -16 l 671 -16 q 528 28 583 -16 q 440 160 473 71 l 440 160 l 440 0 l 76 0 l 76 1760 l 440 1760 l 440 1340 q 532 1470 473 1423 q 699 1516 590 1516 l 699 1516 q 907 1409 846 1516 q 967 1129 967 1302 l 967 1129 l 967 391 q 936 184 967 276 q 839 38 904 91 q 671 -16 773 -16 m 523 263 l 523 263 q 592 319 580 263 q 604 457 604 375 l 604 457 l 604 1043 q 592 1182 604 1126 q 524 1237 580 1237 l 524 1237 q 453 1181 466 1237 q 440 1043 440 1124 l 440 1043 l 440 457 q 453 320 440 376 q 523 263 466 263"},"c":{"ha":1006,"x_min":60,"x_max":953,"o":"m 523 -16 l 523 -16 q 166 113 271 -16 q 60 492 60 242 l 60 492 l 60 954 q 100 1267 60 1142 q 240 1454 140 1392 q 518 1516 340 1516 l 518 1516 q 741 1472 642 1516 q 896 1343 839 1428 q 953 1135 953 1258 l 953 1135 l 953 906 l 588 906 l 588 1116 q 573 1204 588 1168 q 508 1239 558 1239 l 508 1239 q 420 1114 420 1239 l 420 1114 l 420 387 q 440 303 420 341 q 506 264 460 264 l 506 264 q 572 302 553 264 q 590 389 590 339 l 590 389 l 590 641 l 953 641 l 953 379 q 898 167 953 255 q 745 31 842 78 q 523 -16 648 -16"},"d":{"ha":1020,"x_min":62,"x_max":954,"o":"m 367 -16 l 367 -16 q 202 22 263 -16 q 111 127 141 60 q 72 284 81 194 q 62 477 62 374 l 62 477 l 62 1129 q 124 1409 62 1302 q 332 1516 185 1516 l 332 1516 q 500 1470 441 1516 q 590 1340 558 1423 l 590 1340 l 590 1760 l 954 1760 l 954 0 l 590 0 l 590 159 q 511 31 560 78 q 367 -16 461 -16 m 504 264 l 504 264 q 573 305 555 264 q 590 452 590 346 l 590 452 l 590 1083 q 575 1188 590 1136 q 506 1239 559 1239 l 506 1239 q 433 1190 448 1239 q 418 1083 418 1141 l 418 1083 l 418 452 q 504 264 418 264"},"e":{"ha":1000,"x_min":60,"x_max":942,"o":"m 492 -16 l 492 -16 q 237 44 332 -16 q 101 217 142 104 q 60 489 60 330 l 60 489 l 60 1092 q 180 1409 60 1301 q 510 1516 300 1516 l 510 1516 q 942 1092 942 1516 l 942 1092 l 942 983 q 938 717 942 785 l 938 717 l 418 717 l 418 427 q 423 349 418 387 q 446 285 428 310 q 502 260 463 260 l 502 260 q 572 309 558 260 q 586 435 586 357 l 586 435 l 586 579 l 942 579 l 942 494 q 901 213 942 326 q 761 42 859 99 q 492 -16 662 -16 m 416 1097 l 416 895 l 586 895 l 586 1097 q 566 1214 586 1178 q 506 1249 546 1249 l 506 1249 q 440 1215 463 1249 q 416 1097 416 1181 l 416 1097"},"f":{"ha":574,"x_min":40,"x_max":531,"o":"m 460 0 l 105 0 l 105 1161 l 40 1161 l 40 1434 l 105 1434 l 105 1536 q 347 1778 105 1778 l 347 1778 q 531 1749 461 1778 l 531 1749 l 531 1528 q 498 1533 506 1533 l 498 1533 q 460 1511 467 1533 q 453 1453 453 1488 l 453 1453 l 453 1434 l 531 1434 l 531 1157 l 460 1157 l 460 0"},"g":{"ha":1032,"x_min":46,"x_max":964,"o":"m 476 -260 l 476 -260 q 298 -249 372 -260 q 164 -212 223 -239 q 46 -136 105 -185 l 46 -136 l 167 71 q 429 -7 298 -7 l 429 -7 q 557 48 515 -7 q 599 191 599 103 l 599 191 l 599 338 q 370 184 556 184 l 370 184 q 197 235 263 184 q 101 373 131 286 q 71 567 71 460 l 71 567 l 71 1106 q 97 1320 71 1227 q 188 1464 123 1412 q 370 1516 253 1516 l 370 1516 q 525 1466 469 1516 q 599 1331 580 1416 l 599 1331 l 599 1500 l 964 1500 l 964 214 q 847 -150 964 -41 q 476 -260 729 -260 m 515 454 l 515 454 q 599 606 599 454 l 599 606 l 599 1116 q 576 1200 599 1157 q 511 1243 552 1243 l 511 1243 q 446 1205 459 1243 q 433 1116 433 1166 l 433 1116 l 433 606 q 447 503 433 552 q 515 454 460 454"},"h":{"ha":1035,"x_min":72,"x_max":967,"o":"m 440 0 l 72 0 l 72 1760 l 440 1760 l 440 1351 q 529 1476 469 1435 q 669 1516 589 1516 l 669 1516 q 896 1418 825 1516 q 967 1155 967 1320 l 967 1155 l 967 0 l 605 0 l 605 1132 q 585 1212 605 1181 q 520 1243 564 1243 l 520 1243 q 462 1211 483 1243 q 440 1135 440 1179 l 440 1135 l 440 0"},"i":{"ha":498,"x_min":70,"x_max":428,"o":"m 428 1592 l 70 1592 l 70 1890 l 428 1890 l 428 1592 m 428 0 l 70 0 l 70 1500 l 428 1500 l 428 0"},"j":{"ha":538,"x_min":34,"x_max":468,"o":"m 468 1592 l 110 1592 l 110 1890 l 468 1890 l 468 1592 m 186 -260 l 186 -260 q 34 -234 72 -260 l 34 -234 l 34 6 q 67 1 52 1 l 67 1 q 103 21 96 1 q 110 72 110 41 l 110 72 l 110 1500 l 468 1500 l 468 82 q 405 -169 468 -78 q 186 -260 341 -260"},"k":{"ha":1005,"x_min":72,"x_max":1030,"o":"m 426 0 l 72 0 l 72 1760 l 426 1760 l 426 983 l 598 1500 l 969 1500 l 744 848 l 1030 0 l 649 0 l 426 707 l 426 0"},"l":{"ha":508,"x_min":72,"x_max":436,"o":"m 436 0 l 72 0 l 72 1760 l 436 1760 l 436 0"},"m":{"ha":1553,"x_min":72,"x_max":1485,"o":"m 430 0 l 72 0 l 72 1500 l 422 1500 l 422 1326 q 504 1467 446 1418 q 674 1516 562 1516 l 674 1516 q 828 1475 764 1516 q 917 1365 891 1433 l 917 1365 q 1014 1478 958 1439 q 1172 1516 1069 1516 l 1172 1516 q 1365 1463 1297 1516 q 1459 1315 1432 1409 q 1485 1096 1485 1220 l 1485 1096 l 1485 0 l 1128 0 l 1128 1102 q 1054 1247 1128 1247 l 1054 1247 q 994 1221 1015 1247 q 965 1155 973 1194 q 957 1077 957 1116 l 957 1077 l 957 0 l 600 0 l 600 1102 q 589 1196 600 1149 q 530 1243 577 1243 l 530 1243 q 468 1214 490 1243 q 438 1143 446 1185 q 430 1059 430 1100 l 430 1059 l 430 0"},"n":{"ha":1021,"x_min":72,"x_max":953,"o":"m 430 0 l 72 0 l 72 1500 l 430 1500 l 430 1309 q 505 1456 450 1395 q 656 1516 559 1516 l 656 1516 q 883 1420 812 1516 q 953 1157 953 1324 l 953 1157 l 953 0 l 600 0 l 600 1120 q 582 1202 600 1164 q 520 1239 564 1239 l 520 1239 q 460 1211 479 1239 q 435 1140 440 1182 q 430 1055 430 1097 l 430 1055 l 430 0"},"o":{"ha":1017,"x_min":60,"x_max":957,"o":"m 508 -16 l 508 -16 q 60 449 60 -16 l 60 449 l 60 1051 q 179 1390 60 1263 q 508 1516 298 1516 l 508 1516 q 838 1390 719 1516 q 957 1051 957 1263 l 957 1051 l 957 449 q 508 -16 957 -16 m 508 260 l 508 260 q 573 293 553 260 q 592 375 592 325 l 592 375 l 592 1108 q 508 1239 592 1239 l 508 1239 q 424 1108 424 1239 l 424 1108 l 424 375 q 444 293 424 325 q 508 260 463 260"},"p":{"ha":1027,"x_min":72,"x_max":963,"o":"m 436 -250 l 72 -250 l 72 1500 l 436 1500 l 436 1340 q 528 1470 469 1423 q 695 1516 586 1516 l 695 1516 q 903 1409 842 1516 q 963 1129 963 1302 l 963 1129 l 963 391 q 931 184 963 276 q 829 38 898 91 q 647 -16 759 -16 l 647 -16 q 436 160 501 -16 l 436 160 l 436 -250 m 521 263 l 521 263 q 589 319 577 263 q 600 457 600 375 l 600 457 l 600 1043 q 589 1182 600 1126 q 521 1237 577 1237 l 521 1237 q 450 1181 463 1237 q 436 1043 436 1124 l 436 1043 l 436 457 q 450 320 436 376 q 521 263 463 263"},"q":{"ha":1020,"x_min":62,"x_max":954,"o":"m 954 -250 l 590 -250 l 590 159 q 511 31 560 78 q 367 -16 461 -16 l 367 -16 q 202 22 263 -16 q 111 127 141 60 q 72 284 81 194 q 62 477 62 374 l 62 477 l 62 1129 q 124 1409 62 1302 q 332 1516 185 1516 l 332 1516 q 500 1470 441 1516 q 590 1340 558 1423 l 590 1340 l 590 1500 l 954 1500 l 954 -250 m 504 264 l 504 264 q 571 313 551 264 q 590 450 590 362 l 590 450 l 590 1083 q 575 1188 590 1136 q 506 1239 559 1239 l 506 1239 q 433 1190 448 1239 q 418 1083 418 1141 l 418 1083 l 418 452 q 504 264 418 264"},"r":{"ha":710,"x_min":72,"x_max":694,"o":"m 436 0 l 72 0 l 72 1500 l 436 1500 l 436 1333 q 528 1469 462 1420 q 694 1518 594 1518 l 694 1518 l 694 1219 q 589 1210 650 1219 q 482 1184 528 1200 q 436 1147 436 1167 l 436 1147 l 436 0"},"s":{"ha":972,"x_min":39,"x_max":934,"o":"m 483 -16 l 483 -16 q 39 434 39 -16 l 39 434 l 39 553 l 399 553 l 399 377 q 419 297 399 326 q 483 268 439 268 l 483 268 q 561 385 561 268 l 561 385 q 520 532 561 483 q 420 625 479 580 l 420 625 l 229 772 q 92 920 139 842 q 45 1137 45 998 l 45 1137 q 107 1350 45 1266 q 270 1475 168 1434 q 489 1516 371 1516 l 489 1516 q 925 1081 925 1516 l 925 1081 l 925 1053 l 555 1053 l 555 1110 q 540 1197 555 1155 q 479 1239 524 1239 l 479 1239 q 403 1159 403 1239 l 403 1159 q 467 1032 403 1078 l 467 1032 l 689 870 q 864 692 793 795 q 934 418 934 589 l 934 418 q 814 95 934 206 q 483 -16 693 -16"},"t":{"ha":625,"x_min":33,"x_max":583,"o":"m 380 -16 l 380 -16 q 185 46 235 -16 q 134 234 134 107 l 134 234 l 134 1169 l 33 1169 l 33 1442 l 134 1442 l 134 1760 l 482 1760 l 482 1442 l 583 1442 l 583 1169 l 482 1169 l 482 318 q 494 266 482 281 q 540 251 506 251 l 540 251 q 583 255 564 251 l 583 255 l 583 11 q 508 -4 571 7 q 380 -16 445 -16"},"u":{"ha":1022,"x_min":68,"x_max":950,"o":"m 361 -16 l 361 -16 q 178 34 241 -16 q 91 174 114 84 q 68 383 68 263 l 68 383 l 68 1500 l 428 1500 l 428 425 q 442 300 428 335 q 508 264 456 264 l 508 264 q 579 314 564 264 q 593 443 593 364 l 593 443 l 593 1500 l 950 1500 l 950 0 l 592 0 l 592 160 q 511 29 558 74 q 361 -16 463 -16"},"v":{"ha":944,"x_min":22,"x_max":922,"o":"m 677 0 l 263 0 l 22 1500 l 381 1500 l 467 498 l 564 1500 l 922 1500 l 677 0"},"w":{"ha":1426,"x_min":48,"x_max":1378,"o":"m 616 0 l 229 0 l 48 1500 l 355 1500 l 454 694 l 541 1500 l 884 1500 l 987 694 l 1070 1500 l 1378 1500 l 1195 0 l 818 0 l 710 851 l 616 0"},"x":{"ha":940,"x_min":8,"x_max":932,"o":"m 279 0 l 8 0 l 283 806 l 33 1501 l 398 1501 l 527 1137 l 654 1501 l 920 1501 l 662 759 l 932 0 l 573 0 l 421 422 l 279 0"},"y":{"ha":944,"x_min":16,"x_max":922,"o":"m 447 -250 l 43 -250 l 43 -23 l 215 -23 q 254 4 254 -23 l 254 4 q 251 33 254 18 l 251 33 l 16 1500 l 359 1500 l 459 396 l 577 1500 l 922 1500 l 644 -78 q 587 -206 629 -163 q 447 -250 544 -250 l 447 -250"},"z":{"ha":790,"x_min":28,"x_max":776,"o":"m 776 0 l 28 0 l 28 219 l 402 1216 l 46 1216 l 46 1500 l 773 1500 l 773 1256 l 420 268 l 776 268 l 776 0"},".":{"ha":468,"x_min":55,"x_max":413,"o":"m 413 1 l 55 1 l 55 299 l 413 299 l 413 1"},",":{"ha":484,"x_min":55,"x_max":429,"o":"m 327 -235 l 116 -235 l 182 1 l 55 1 l 55 299 l 429 299 l 429 10 l 327 -235"},"!":{"ha":469,"x_min":55,"x_max":413,"o":"m 343 479 l 125 479 l 55 1760 l 413 1760 l 343 479 m 413 1 l 55 1 l 55 299 l 413 299 l 413 1"},"?":{"ha":1008,"x_min":48,"x_max":978,"o":"m 460 455 l 127 455 l 127 871 q 342 884 252 871 q 489 939 431 897 q 574 1066 546 981 q 601 1294 601 1151 l 601 1294 q 585 1408 601 1359 q 508 1457 568 1457 l 508 1457 q 445 1430 465 1457 q 420 1360 425 1402 q 414 1271 414 1317 l 414 1271 l 414 1125 l 48 1125 l 48 1379 q 177 1679 48 1581 q 508 1776 305 1776 l 508 1776 q 789 1712 686 1776 q 935 1526 891 1648 q 978 1226 978 1403 l 978 1226 q 922 917 978 1053 q 750 703 865 781 q 460 625 635 625 l 460 625 l 460 455 m 474 1 l 116 1 l 116 299 l 474 299 l 474 1"},":":{"ha":495,"x_min":68,"x_max":426,"o":"m 426 976 l 68 976 l 68 1274 l 426 1274 l 426 976 m 426 237 l 68 237 l 68 535 l 426 535 l 426 237"},"'":{"ha":438,"x_min":41,"x_max":393,"o":"m 317 1124 l 141 1124 l 41 1760 l 393 1760 l 317 1124"},"\"":{"ha":878,"x_min":41,"x_max":833,"o":"m 317 1124 l 141 1124 l 41 1760 l 393 1760 l 317 1124 m 757 1124 l 581 1124 l 481 1760 l 833 1760 l 757 1124"},"-":{"ha":637,"x_min":60,"x_max":576,"o":"m 576 509 l 60 509 l 60 741 l 576 741 l 576 509"},"&":{"ha":1065,"x_min":35,"x_max":1035,"o":"m 386 -21 l 386 -21 q 129 106 222 -21 q 35 456 35 233 l 35 456 q 64 720 35 615 q 143 895 92 825 q 260 1017 194 965 l 260 1017 l 252 1037 q 179 1236 210 1141 q 147 1430 147 1330 l 147 1430 q 190 1609 147 1531 q 310 1732 233 1687 q 485 1776 386 1776 l 485 1776 q 664 1734 583 1776 q 792 1606 744 1691 q 840 1391 840 1521 l 840 1391 q 788 1155 840 1250 q 630 972 735 1060 l 630 972 l 726 730 q 896 961 785 879 l 896 961 l 1035 744 q 841 441 919 651 l 841 441 l 1017 0 l 677 0 l 638 95 q 534 13 599 47 q 386 -21 468 -21 m 461 1461 l 461 1461 q 474 1385 461 1435 q 535 1210 487 1334 l 535 1210 q 569 1273 554 1230 q 584 1391 584 1316 l 584 1391 q 566 1499 584 1468 q 517 1530 547 1530 l 517 1530 q 475 1509 488 1530 q 461 1461 461 1487 m 341 493 l 341 413 q 442 235 341 235 l 442 235 q 508 266 483 235 q 542 329 533 296 l 542 329 l 374 738 q 341 493 341 668 l 341 493"}}}
